<svg id="svg" version="1.1" xmlns="http://www.w3.org/2000/svg" xmlns:xlink="http://www.w3.org/1999/xlink" width="400" height="187.0910698496905" viewBox="0, 0, 400,187.0910698496905"><g id="svgg"><path id="path0" d="M45.715 1.277 C 45.050 1.985,43.406 3.699,42.062 5.087 C 37.069 10.240,34.644 12.751,30.592 16.968 C 28.307 19.346,25.196 22.569,23.680 24.130 C 22.163 25.690,20.201 27.723,19.319 28.647 L 17.716 30.327 69.468 30.423 C 110.324 30.499,121.495 30.566,122.525 30.745 C 129.630 31.975,133.345 35.416,133.637 41.034 C 134.002 48.077,129.488 53.685,121.629 55.950 C 118.001 56.995,121.131 56.941,64.753 56.941 C 36.348 56.941,13.067 57.006,13.017 57.085 C 12.968 57.164,12.729 58.378,12.486 59.782 C 12.243 61.186,11.520 65.318,10.879 68.966 C 10.238 72.613,9.555 76.512,9.361 77.630 C 9.166 78.749,8.692 81.454,8.307 83.643 C 7.639 87.441,6.973 91.231,4.969 102.653 C 4.474 105.473,3.635 110.248,3.104 113.263 C 2.573 116.278,1.980 119.660,1.787 120.778 C 0.963 125.530,0.150 130.090,0.059 130.461 L -0.039 130.859 18.056 130.814 L 36.152 130.769 36.280 130.062 C 36.350 129.673,36.887 126.609,37.473 123.254 C 39.171 113.524,39.218 113.259,39.858 109.637 C 40.193 107.741,41.190 102.051,42.074 96.994 C 42.958 91.936,43.722 87.619,43.772 87.401 L 43.862 87.003 76.263 87.002 C 108.531 87.001,111.694 86.952,116.888 86.372 C 149.501 82.734,169.934 64.673,170.593 38.901 C 171.115 18.480,157.865 4.700,134.129 0.978 C 128.355 0.073,130.557 0.116,87.255 0.051 L 46.923 -0.009 45.715 1.277 M177.011 58.497 C 177.011 58.615,174.888 70.634,172.701 82.891 L 172.125 86.118 176.514 86.118 C 178.927 86.118,180.902 86.071,180.902 86.012 C 180.902 85.953,181.930 80.085,183.187 72.970 C 184.443 65.856,185.527 59.657,185.594 59.195 L 185.717 58.355 181.364 58.355 C 178.970 58.355,177.011 58.419,177.011 58.497 M188.329 58.488 C 188.330 58.680,197.465 68.966,199.142 70.662 L 200.556 72.093 198.466 73.659 C 197.316 74.520,194.425 76.773,192.042 78.667 C 189.660 80.560,186.616 82.979,185.279 84.042 C 183.941 85.105,182.847 86.007,182.847 86.046 C 182.847 86.086,185.257 86.118,188.201 86.118 L 193.556 86.118 195.605 84.483 C 196.732 83.583,198.834 81.892,200.275 80.725 C 201.717 79.558,203.317 78.265,203.832 77.852 L 204.767 77.100 206.318 78.901 C 207.171 79.892,208.466 81.389,209.195 82.229 C 209.925 83.069,210.959 84.286,211.494 84.935 L 212.467 86.114 218.639 86.116 C 224.500 86.118,224.798 86.103,224.550 85.809 C 224.246 85.449,217.201 77.527,216.254 76.481 C 213.055 72.945,212.157 71.986,211.998 71.933 C 211.896 71.899,213.070 70.919,214.609 69.755 C 216.147 68.591,218.005 67.160,218.738 66.574 C 219.471 65.988,222.080 63.933,224.536 62.007 C 226.992 60.081,229.001 58.472,229.001 58.430 C 229.001 58.389,226.468 58.355,223.373 58.355 L 217.745 58.355 213.338 62.003 C 210.914 64.009,208.597 65.924,208.189 66.259 L 207.449 66.868 206.844 66.193 C 206.220 65.497,205.325 64.436,202.122 60.598 L 200.265 58.374 194.297 58.365 C 191.015 58.360,188.329 58.415,188.329 58.488 M230.446 62.733 C 230.025 65.139,229.371 68.820,228.993 70.911 C 227.781 77.619,226.348 85.759,226.348 85.941 C 226.348 86.058,230.926 86.118,239.755 86.118 L 253.161 86.118 256.095 83.058 C 257.709 81.374,259.242 79.743,259.504 79.433 L 259.978 78.868 248.180 78.868 L 236.382 78.868 236.505 77.940 C 236.573 77.429,236.709 76.634,236.808 76.172 L 236.988 75.332 245.505 75.324 L 254.023 75.317 256.941 72.227 C 258.546 70.527,259.885 69.058,259.917 68.963 C 259.956 68.850,256.141 68.789,249.064 68.789 L 238.151 68.789 238.271 68.037 C 238.338 67.624,238.438 66.947,238.495 66.534 L 238.598 65.782 247.571 65.782 L 256.544 65.782 257.553 64.677 C 258.511 63.630,259.158 62.945,262.234 59.726 L 263.543 58.355 247.377 58.356 L 231.211 58.356 230.446 62.733 M264.898 58.445 C 264.898 58.545,262.858 70.078,261.128 79.752 L 260.006 86.030 272.311 86.082 L 284.615 86.134 288.014 82.634 C 289.884 80.709,291.416 79.074,291.418 79.001 C 291.421 78.928,286.609 78.868,280.725 78.868 C 274.841 78.868,270.027 78.836,270.027 78.798 C 270.027 78.759,270.822 74.247,271.795 68.771 C 272.767 63.295,273.563 58.712,273.563 58.585 C 273.563 58.403,272.667 58.355,269.231 58.355 C 266.848 58.355,264.898 58.396,264.898 58.445 M304.598 58.477 C 298.814 59.227,295.476 61.603,294.423 65.722 C 293.499 69.333,294.594 72.460,297.259 73.824 C 299.315 74.876,299.168 74.862,309.822 74.968 C 320.605 75.076,320.317 75.045,320.820 76.150 C 321.096 76.755,320.683 77.915,320.014 78.410 C 319.522 78.774,319.333 78.781,308.059 78.868 L 296.603 78.957 294.853 80.813 C 293.891 81.835,292.372 83.426,291.477 84.350 L 289.851 86.030 303.767 86.083 C 320.608 86.147,321.298 86.090,324.574 84.379 C 329.504 81.804,331.141 74.496,327.500 71.319 C 325.569 69.634,324.323 69.464,313.351 69.381 C 302.213 69.297,302.564 69.350,302.564 67.767 C 302.564 65.766,302.533 65.771,314.645 65.780 L 324.945 65.787 328.299 62.234 C 330.144 60.279,331.680 58.607,331.712 58.518 C 331.769 58.363,305.779 58.324,304.598 58.477 " stroke="none" fill="#1c539c" fill-rule="evenodd"></path><path id="path1" d="M81.786 103.689 C 80.278 104.394,76.128 109.737,70.450 118.283 L 68.877 120.651 68.661 117.576 C 68.429 114.279,67.603 105.150,67.450 104.200 L 67.358 103.625 63.034 103.625 C 60.655 103.625,58.709 103.645,58.710 103.669 C 58.731 105.673,61.603 129.289,61.901 129.903 C 63.200 132.586,67.543 132.655,70.047 130.032 C 71.176 128.850,81.349 115.097,82.333 113.424 C 82.496 113.146,82.617 113.371,83.108 114.859 C 84.669 119.593,88.831 129.815,89.513 130.590 C 91.310 132.632,94.941 132.371,97.066 130.046 C 97.786 129.259,109.293 105.600,109.768 103.931 C 109.852 103.638,109.597 103.622,105.558 103.666 L 101.259 103.714 98.388 110.080 C 96.809 113.581,95.139 117.388,94.678 118.539 L 93.839 120.633 92.306 116.152 C 88.417 104.786,88.184 104.257,86.771 103.615 C 85.629 103.097,82.967 103.136,81.786 103.689 M171.411 103.613 C 169.284 104.379,169.660 103.994,156.197 119.202 L 145.774 130.976 143.369 127.866 C 142.047 126.156,140.511 124.256,139.957 123.644 C 139.402 123.032,138.978 122.513,139.014 122.491 C 139.051 122.469,139.677 122.255,140.407 122.015 C 148.517 119.351,150.302 108.668,143.205 105.262 C 140.192 103.816,138.285 103.628,126.586 103.627 L 117.099 103.625 113.678 107.178 C 111.796 109.131,110.231 110.800,110.199 110.886 C 110.167 110.974,115.780 111.063,123.197 111.091 L 136.251 111.141 137.010 111.546 C 139.808 113.040,138.356 116.353,134.591 117.062 C 134.005 117.172,128.903 117.242,121.329 117.242 L 109.019 117.242 107.820 124.094 C 107.161 127.863,106.624 131.085,106.627 131.256 C 106.631 131.542,106.957 131.565,110.964 131.565 C 113.347 131.565,115.296 131.525,115.296 131.476 C 115.296 131.427,115.575 129.819,115.915 127.902 C 116.256 125.986,116.534 124.355,116.534 124.278 C 116.534 124.201,119.458 124.140,123.033 124.142 L 129.531 124.146 131.989 127.856 L 134.447 131.565 145.081 131.565 L 155.715 131.565 163.313 122.964 C 167.492 118.234,171.116 114.121,171.367 113.825 L 171.824 113.287 174.594 118.734 C 176.118 121.730,177.365 124.211,177.365 124.248 C 177.365 124.285,174.741 124.315,171.534 124.315 L 165.703 124.315 162.560 127.776 C 160.831 129.680,159.390 131.312,159.358 131.402 C 159.322 131.501,165.668 131.565,175.513 131.565 C 188.412 131.565,191.709 131.520,191.641 131.344 C 190.760 129.072,178.316 105.497,177.609 104.761 C 176.194 103.289,173.631 102.814,171.411 103.613 M292.432 103.526 C 290.842 104.094,289.570 105.405,289.028 107.036 C 288.812 107.685,284.704 130.786,284.704 131.351 C 284.704 131.512,285.687 131.565,288.683 131.565 C 290.871 131.565,292.661 131.505,292.661 131.432 C 292.660 131.217,295.328 115.936,295.410 115.687 C 295.451 115.562,298.787 118.984,302.823 123.291 C 311.164 132.193,310.912 131.984,313.174 131.877 C 314.970 131.791,315.761 131.441,316.867 130.240 C 318.131 128.870,318.208 128.564,320.439 116.104 C 321.590 109.678,322.563 104.242,322.603 104.023 L 322.674 103.625 318.676 103.626 L 314.677 103.626 313.281 111.539 C 312.513 115.891,311.836 119.502,311.778 119.563 C 311.719 119.624,308.369 116.141,304.332 111.824 C 299.136 106.266,296.784 103.872,296.275 103.623 C 295.419 103.204,293.472 103.156,292.432 103.526 M200.119 107.297 L 196.613 110.964 209.403 111.052 C 223.360 111.149,222.664 111.095,223.659 112.159 C 224.915 113.505,223.802 116.093,221.622 116.894 C 221.082 117.093,218.543 117.151,208.269 117.197 L 195.583 117.255 195.494 117.646 C 195.354 118.264,193.103 131.211,193.103 131.397 C 193.103 131.498,194.818 131.565,197.423 131.565 L 201.743 131.565 201.926 130.637 C 202.027 130.126,202.274 128.753,202.475 127.586 C 202.676 126.419,202.883 125.252,202.935 124.992 L 203.028 124.520 211.903 124.444 C 221.734 124.361,222.259 124.308,225.401 123.092 C 234.310 119.645,235.995 108.757,228.196 105.035 C 225.554 103.775,225.265 103.747,213.882 103.686 L 203.625 103.630 200.119 107.297 M239.759 107.175 C 237.878 109.127,236.314 110.796,236.282 110.884 C 236.248 110.977,241.498 111.063,248.926 111.092 L 261.627 111.141 262.375 111.540 C 264.235 112.534,264.037 115.264,262.020 116.423 C 260.653 117.209,260.070 117.241,247.206 117.241 C 240.500 117.241,235.013 117.295,235.013 117.361 C 235.013 117.540,232.708 130.706,232.595 131.170 L 232.498 131.571 236.894 131.524 L 241.291 131.477 241.898 127.984 L 242.505 124.492 250.298 124.490 C 260.653 124.488,262.513 124.256,266.136 122.510 C 273.966 118.737,274.966 108.610,267.852 105.137 C 265.036 103.761,263.642 103.625,252.408 103.625 L 243.179 103.625 239.759 107.175 M277.194 103.846 C 277.090 104.165,272.325 131.080,272.325 131.344 C 272.325 131.515,273.309 131.565,276.654 131.565 L 280.984 131.565 281.077 131.167 C 281.128 130.948,282.204 124.881,283.467 117.683 C 284.731 110.486,285.811 104.379,285.867 104.111 L 285.970 103.625 281.618 103.625 C 278.292 103.625,277.249 103.677,277.194 103.846 M339.788 103.749 C 329.724 104.668,322.725 110.950,322.689 119.098 C 322.667 124.030,324.961 127.649,329.531 129.889 C 332.770 131.477,332.758 131.476,345.261 131.476 L 356.217 131.477 357.674 123.254 C 358.475 118.731,359.173 114.812,359.225 114.545 L 359.319 114.058 350.347 114.058 L 341.376 114.058 338.196 117.241 L 335.017 120.424 342.232 120.424 L 349.447 120.424 349.333 121.176 C 349.270 121.589,349.125 122.445,349.011 123.077 L 348.804 124.226 343.765 124.276 C 337.918 124.334,336.204 124.180,334.674 123.462 C 328.799 120.703,331.204 112.839,338.389 111.317 C 339.354 111.113,341.235 111.058,347.327 111.055 L 355.042 111.052 358.202 107.736 C 359.940 105.912,361.513 104.241,361.698 104.023 L 362.035 103.625 351.265 103.655 C 345.342 103.671,340.177 103.714,339.788 103.749 M372.806 103.808 C 366.879 104.431,363.083 107.321,362.330 111.785 C 361.733 115.322,362.888 117.955,365.644 119.343 C 367.460 120.258,367.939 120.298,378.258 120.409 C 389.030 120.525,388.722 120.487,388.956 121.734 C 389.178 122.914,388.289 123.908,386.793 124.154 C 386.325 124.231,381.154 124.298,375.302 124.304 L 364.662 124.315 361.253 127.896 L 357.844 131.477 371.362 131.527 C 387.806 131.588,388.842 131.511,392.177 129.964 C 398.376 127.091,399.574 118.208,394.097 115.730 C 392.133 114.841,391.161 114.766,381.572 114.761 C 371.043 114.756,370.645 114.698,370.645 113.163 C 370.645 111.118,370.433 111.155,382.676 111.052 L 393.203 110.964 396.380 107.601 C 398.128 105.751,399.667 104.100,399.801 103.931 C 400.063 103.601,375.836 103.490,372.806 103.808 M181.483 161.166 C 176.137 162.912,175.517 168.812,180.422 171.257 C 181.296 171.692,182.674 172.026,185.145 172.403 C 190.623 173.237,191.839 177.914,187.175 180.210 C 183.433 182.052,179.162 180.208,178.402 176.421 L 178.201 175.420 177.518 175.420 L 176.835 175.420 176.835 176.209 C 176.835 181.888,185.305 184.461,189.850 180.162 C 193.956 176.279,191.251 171.565,184.350 170.578 C 178.727 169.775,176.641 165.773,180.557 163.301 C 183.908 161.186,189.744 163.134,189.744 166.369 C 189.744 166.710,189.838 166.755,190.563 166.755 L 191.383 166.755 191.274 165.959 C 190.792 162.440,185.505 159.852,181.483 161.166 M21.751 171.717 L 21.751 181.983 22.502 181.929 L 23.254 181.874 23.299 171.662 L 23.345 161.450 22.548 161.450 L 21.751 161.450 21.751 171.717 M26.525 171.706 L 26.525 181.963 27.321 181.963 L 28.117 181.963 28.117 177.001 C 28.117 171.300,28.208 170.891,29.811 169.413 C 31.766 167.611,33.909 167.509,35.348 169.147 C 36.491 170.450,36.505 170.534,36.571 176.525 L 36.632 181.963 37.326 181.963 L 38.019 181.963 38.019 176.244 L 38.019 170.525 37.479 169.443 C 35.837 166.157,31.716 165.614,29.004 168.327 L 28.117 169.214 28.117 165.332 L 28.117 161.450 27.321 161.450 L 26.525 161.450 26.525 171.706 M58.886 171.706 L 58.886 181.963 59.682 181.963 L 60.477 181.963 60.477 177.365 L 60.477 172.767 64.657 172.767 C 69.441 172.767,69.857 172.690,71.097 171.576 C 73.502 169.413,73.725 165.389,71.575 162.946 C 70.285 161.481,70.174 161.458,64.147 161.454 L 58.886 161.450 58.886 171.706 M148.718 162.511 L 148.718 163.572 149.514 163.572 L 150.309 163.572 150.309 162.511 L 150.309 161.450 149.514 161.450 L 148.718 161.450 148.718 162.511 M221.043 171.706 L 221.043 181.963 221.839 181.963 L 222.635 181.963 222.639 176.967 C 222.643 171.301,222.663 171.200,224.080 169.657 C 225.799 167.785,227.990 167.470,229.581 168.866 C 230.821 169.956,230.848 170.098,230.946 176.304 L 231.034 181.874 231.795 181.929 L 232.555 181.984 232.502 176.094 C 232.451 170.459,232.433 170.173,232.069 169.496 C 230.292 166.186,226.239 165.604,223.569 168.274 L 222.635 169.208 222.635 165.329 L 222.635 161.450 221.839 161.450 L 221.043 161.450 221.043 171.706 M274.624 171.706 L 274.624 181.963 275.332 181.963 L 276.039 181.963 276.039 176.923 L 276.039 171.883 280.990 171.883 L 285.942 171.883 285.942 171.176 L 285.942 170.469 280.990 170.469 L 276.039 170.469 276.039 166.667 L 276.039 162.865 281.698 162.865 L 287.356 162.865 287.356 162.157 L 287.356 161.450 280.990 161.450 L 274.624 161.450 274.624 171.706 M303.845 171.662 L 303.890 181.874 304.642 181.929 L 305.393 181.983 305.393 171.717 L 305.393 161.450 304.596 161.450 L 303.799 161.450 303.845 171.662 M308.753 162.511 L 308.753 163.572 309.461 163.572 L 310.168 163.572 310.168 162.511 L 310.168 161.450 309.461 161.450 L 308.753 161.450 308.753 162.511 M69.264 163.209 C 72.049 164.473,72.191 169.307,69.489 170.822 C 68.721 171.253,68.593 171.266,64.589 171.323 L 60.477 171.381 60.477 167.123 L 60.477 162.865 64.500 162.869 C 68.071 162.872,68.607 162.910,69.264 163.209 M96.552 164.975 L 96.552 167.086 94.713 167.053 C 92.567 167.015,91.870 167.349,90.776 168.941 L 90.186 169.800 90.186 168.454 L 90.186 167.109 89.390 167.109 L 88.594 167.109 88.594 174.536 L 88.594 181.963 89.390 181.963 L 90.186 181.963 90.186 177.574 C 90.186 170.711,91.232 168.793,95.172 168.432 L 96.534 168.307 96.587 174.295 C 96.637 179.965,96.659 180.316,97.003 180.901 C 97.946 182.505,100.619 182.959,100.619 181.514 C 100.619 180.935,100.610 180.929,100.044 181.092 C 99.584 181.224,99.382 181.192,99.027 180.930 C 98.171 180.296,98.149 180.121,98.146 174.050 L 98.143 168.347 99.116 168.347 L 100.088 168.347 100.088 167.728 L 100.088 167.109 99.116 167.109 L 98.143 167.109 98.143 164.987 L 98.143 162.865 97.347 162.865 L 96.552 162.865 96.552 164.975 M120.122 166.887 C 114.502 168.778,113.919 178.934,119.268 181.758 C 122.607 183.520,128.736 180.998,128.736 177.861 C 128.736 177.221,127.281 177.427,126.979 178.109 C 125.906 180.535,122.065 181.685,119.779 180.265 C 118.353 179.380,117.449 177.684,117.172 175.376 L 117.071 174.536 122.928 174.536 L 128.785 174.536 128.695 172.958 C 128.432 168.359,124.347 165.465,120.122 166.887 M211.583 166.816 C 203.656 169.445,205.126 182.405,213.351 182.405 C 216.565 182.405,219.080 180.488,219.094 178.028 L 219.098 177.365 218.302 177.365 C 217.552 177.365,217.507 177.393,217.506 177.851 C 217.504 179.040,215.959 180.560,214.389 180.918 C 208.405 182.284,205.416 172.450,210.741 168.914 C 213.165 167.305,216.840 168.345,217.509 170.830 C 217.777 171.825,219.101 171.930,219.094 170.955 C 219.075 168.131,214.770 165.759,211.583 166.816 M239.425 166.819 C 233.101 168.525,233.144 180.566,239.480 182.149 C 243.078 183.048,247.899 180.543,247.920 177.763 C 247.924 177.337,246.373 177.483,246.234 177.921 C 246.031 178.560,244.714 179.847,243.774 180.326 C 240.299 182.096,236.811 179.892,236.328 175.621 L 236.205 174.536 242.064 174.536 L 247.922 174.536 247.922 173.660 C 247.922 168.769,243.976 165.592,239.425 166.819 M292.649 166.809 C 288.875 167.879,286.762 172.463,287.963 176.974 C 289.839 184.020,299.793 183.811,301.304 176.693 C 302.652 170.348,298.179 165.240,292.649 166.809 M317.118 166.896 C 311.180 169.022,311.016 179.770,316.888 181.983 C 320.314 183.274,324.851 181.329,325.698 178.205 L 325.878 177.542 325.113 177.542 C 324.396 177.542,324.320 177.591,323.893 178.319 C 321.215 182.888,314.800 181.135,314.292 175.694 L 314.184 174.536 320.045 174.536 L 325.906 174.536 325.903 174.050 C 325.865 168.740,321.620 165.284,317.118 166.896 M368.435 166.815 C 362.820 168.674,362.198 178.260,367.514 181.029 C 369.720 182.179,372.876 181.588,374.536 179.717 L 375.288 178.868 375.206 180.725 C 375.049 184.275,373.723 185.588,370.292 185.588 C 367.611 185.588,366.007 184.665,365.515 182.839 C 365.335 182.169,365.296 182.140,364.604 182.140 L 363.881 182.140 363.997 182.866 C 364.828 188.067,374.662 188.643,376.383 183.591 C 376.615 182.909,376.658 181.571,376.658 174.946 L 376.658 167.109 375.950 167.109 L 375.243 167.109 375.242 168.302 L 375.242 169.496 374.911 168.966 C 373.740 167.086,370.683 166.071,368.435 166.815 M105.836 167.258 C 105.250 167.536,104.477 168.090,104.111 168.496 L 103.448 169.232 103.448 168.170 L 103.448 167.109 102.741 167.109 L 102.034 167.109 102.034 174.536 L 102.034 181.963 102.731 181.963 L 103.428 181.963 103.483 176.879 C 103.533 172.134,103.562 171.741,103.912 170.983 C 105.300 167.982,109.010 167.197,111.015 169.481 C 111.866 170.450,111.934 170.986,111.935 176.712 L 111.936 181.983 112.688 181.929 L 113.439 181.874 113.439 176.216 C 113.439 170.828,113.422 170.519,113.066 169.761 C 111.838 167.142,108.511 165.990,105.836 167.258 M157.606 167.129 C 157.062 167.338,156.351 167.814,155.882 168.284 L 155.084 169.082 155.084 168.095 L 155.084 167.109 154.288 167.109 L 153.492 167.109 153.492 174.536 L 153.492 181.963 154.288 181.963 L 155.084 181.963 155.084 177.043 C 155.084 171.517,155.158 171.066,156.277 169.758 C 158.183 167.531,161.715 167.672,163.014 170.027 C 163.263 170.479,163.320 171.395,163.395 176.216 L 163.484 181.874 164.235 181.929 L 164.987 181.983 164.985 176.270 C 164.983 170.649,164.977 170.543,164.568 169.666 C 163.432 167.226,160.312 166.089,157.606 167.129 M254.642 166.910 C 253.697 167.221,252.728 167.823,252.194 168.431 L 251.636 169.066 251.636 168.087 L 251.636 167.109 250.840 167.109 L 250.044 167.109 250.044 174.536 L 250.044 181.963 250.840 181.963 L 251.636 181.963 251.636 176.802 C 251.636 171.977,251.659 171.593,251.995 170.900 C 253.650 167.481,258.124 167.176,259.611 170.380 C 259.908 171.020,259.940 171.605,259.943 176.525 L 259.947 181.963 260.754 181.963 L 261.560 181.963 261.505 176.172 C 261.443 169.681,261.443 169.677,260.029 168.264 C 258.790 167.025,256.243 166.384,254.642 166.910 M354.710 166.989 C 353.736 167.353,352.839 167.957,352.348 168.580 L 351.905 169.142 351.903 168.126 L 351.901 167.109 351.105 167.109 L 350.309 167.109 350.309 174.536 L 350.309 181.963 351.105 181.963 L 351.901 181.963 351.903 176.879 C 351.904 171.925,351.915 171.772,352.317 170.911 C 353.835 167.657,358.258 167.177,359.801 170.099 C 360.206 170.866,360.212 170.960,360.212 176.420 L 360.212 181.963 361.008 181.963 L 361.804 181.963 361.804 176.424 C 361.804 170.264,361.742 169.843,360.664 168.583 C 359.359 167.058,356.542 166.304,354.710 166.989 M45.162 167.185 C 44.457 167.492,43.427 168.522,42.981 169.367 L 42.633 170.027 42.625 168.568 L 42.617 167.109 41.819 167.109 L 41.022 167.109 41.068 174.492 L 41.114 181.874 41.866 181.929 L 42.617 181.983 42.617 177.673 C 42.617 173.040,42.743 172.153,43.585 170.839 C 44.472 169.457,45.862 168.523,47.032 168.523 C 47.550 168.523,47.569 168.496,47.569 167.728 L 47.569 166.932 46.640 166.939 C 46.130 166.943,45.464 167.053,45.162 167.185 M77.278 167.227 C 75.355 167.900,74.283 169.168,74.274 170.778 L 74.271 171.530 75.066 171.530 L 75.862 171.530 75.862 170.758 C 75.862 167.090,83.520 167.326,83.786 171.002 C 83.908 172.695,83.278 173.092,79.594 173.649 C 74.803 174.373,72.577 176.868,74.086 179.826 C 75.511 182.618,80.761 183.254,83.098 180.917 L 83.750 180.265 84.035 180.933 C 84.573 182.192,87.179 182.661,87.179 181.499 C 87.179 181.178,87.094 181.069,86.870 181.101 C 85.468 181.305,85.341 180.803,85.236 174.624 C 85.135 168.685,85.179 168.886,83.793 167.955 C 82.283 166.941,79.108 166.586,77.278 167.227 M135.107 167.129 C 134.362 167.426,133.577 168.119,133.001 168.988 L 132.449 169.822 132.449 168.465 L 132.449 167.109 131.653 167.109 L 130.858 167.109 130.858 174.536 L 130.858 181.963 131.653 181.963 L 132.449 181.963 132.449 177.574 C 132.449 172.679,132.555 172.011,133.570 170.529 C 134.301 169.461,135.777 168.523,136.730 168.523 L 137.401 168.523 137.401 167.728 L 137.401 166.932 136.472 166.943 C 135.962 166.949,135.347 167.033,135.107 167.129 M195.866 167.285 C 193.920 168.045,193.153 168.921,193.068 170.482 L 193.015 171.441 193.767 171.496 L 194.518 171.550 194.519 170.877 C 194.521 168.148,199.393 167.100,201.718 169.328 C 202.448 170.028,202.476 170.093,202.476 171.133 C 202.476 172.763,201.722 173.194,197.952 173.715 C 193.341 174.353,191.080 177.302,192.990 180.188 C 194.703 182.778,199.999 183.111,201.982 180.754 L 202.419 180.235 202.640 180.846 C 203.125 182.187,205.836 182.724,205.836 181.480 C 205.836 181.115,205.769 181.055,205.458 181.136 C 205.193 181.206,204.929 181.084,204.574 180.728 L 204.067 180.222 204.063 175.124 C 204.059 169.168,204.007 168.926,202.530 167.989 C 200.796 166.889,197.713 166.564,195.866 167.285 M331.931 167.238 C 331.154 167.621,330.251 168.527,329.807 169.367 L 329.459 170.027 329.451 168.568 L 329.443 167.109 328.645 167.109 L 327.848 167.109 327.894 174.492 L 327.940 181.874 328.681 181.928 L 329.421 181.982 329.476 177.331 L 329.531 172.679 330.027 171.618 C 330.877 169.797,332.424 168.537,333.820 168.527 C 334.382 168.524,334.394 168.507,334.394 167.728 L 334.394 166.932 333.466 166.936 C 332.955 166.938,332.265 167.074,331.931 167.238 M148.718 174.536 L 148.718 181.963 149.514 181.963 L 150.309 181.963 150.309 174.536 L 150.309 167.109 149.514 167.109 L 148.718 167.109 148.718 174.536 M308.753 174.536 L 308.753 181.963 309.461 181.963 L 310.168 181.963 310.168 174.536 L 310.168 167.109 309.461 167.109 L 308.753 167.109 308.753 174.536 M335.487 172.900 C 335.551 179.406,335.551 179.406,336.926 180.781 C 339.100 182.955,343.592 182.599,345.174 180.129 L 345.529 179.576 345.532 180.769 L 345.535 181.963 346.331 181.963 L 347.126 181.963 347.126 174.536 L 347.126 167.109 346.331 167.109 L 345.535 167.109 345.535 171.700 C 345.535 178.325,344.421 180.583,341.013 180.866 C 337.641 181.146,337.049 179.891,337.048 172.458 L 337.047 167.109 336.238 167.109 L 335.430 167.109 335.487 172.900 M371.973 168.232 C 377.139 170.637,375.625 180.371,370.085 180.371 C 364.843 180.371,363.706 169.895,368.754 168.107 C 369.860 167.715,370.955 167.758,371.973 168.232 M124.517 168.569 C 125.990 169.439,126.926 170.785,127.220 172.458 L 127.337 173.121 122.212 173.121 L 117.087 173.121 117.188 172.458 C 117.716 168.988,121.672 166.889,124.517 168.569 M243.413 168.440 C 244.902 169.159,246.117 170.814,246.291 172.362 L 246.377 173.121 241.291 173.121 L 236.206 173.121 236.322 172.398 C 236.850 169.092,240.520 167.043,243.413 168.440 M296.817 168.437 C 299.362 169.673,300.620 173.556,299.582 176.973 C 297.998 182.186,290.912 181.988,289.487 176.691 C 288.014 171.214,292.388 166.288,296.817 168.437 M321.431 168.494 C 322.877 169.235,323.989 170.769,324.241 172.370 L 324.360 173.121 319.274 173.121 L 314.187 173.121 314.297 172.322 C 314.747 169.034,318.528 167.006,321.431 168.494 M83.794 175.906 C 83.640 180.391,79.237 182.853,76.243 180.130 C 73.816 177.922,75.684 175.410,80.195 174.816 C 81.264 174.676,82.458 174.445,82.847 174.303 C 83.236 174.162,83.623 174.037,83.707 174.026 C 83.790 174.015,83.829 174.861,83.794 175.906 M202.196 178.047 C 200.921 181.384,196.048 182.245,194.335 179.436 C 192.972 177.200,194.797 175.347,198.886 174.815 C 200.045 174.664,201.306 174.432,201.690 174.299 L 202.387 174.057 202.439 175.667 C 202.476 176.843,202.411 177.484,202.196 178.047 " stroke="none" fill="#1c1c1c" fill-rule="evenodd"></path><path id="path2" d="" stroke="none" fill="#2038a0" fill-rule="evenodd"></path><path id="path3" d="" stroke="none" fill="#2038a0" fill-rule="evenodd"></path><path id="path4" d="" stroke="none" fill="#2038a0" fill-rule="evenodd"></path></g></svg>