<?xml version="1.0" encoding="UTF-8" standalone="no"?>
<svg
   width="24"
   height="24"
   fill-rule="evenodd"
   clip-rule="evenodd"
   image-rendering="optimizeQuality"
   shape-rendering="geometricPrecision"
   text-rendering="geometricPrecision"
   viewBox="0 0 24 24"
   id="tiktok"
   version="1.1"
   sodipodi:docname="path2.svg"
   xml:space="preserve"
   xmlns:inkscape="http://www.inkscape.org/namespaces/inkscape"
   xmlns:sodipodi="http://sodipodi.sourceforge.net/DTD/sodipodi-0.dtd"
   xmlns="http://www.w3.org/2000/svg"
   xmlns:svg="http://www.w3.org/2000/svg"><defs
     id="defs7" /><sodipodi:namedview
     id="namedview5"
     pagecolor="#ffffff"
     bordercolor="#000000"
     borderopacity="0.25"
     inkscape:showpageshadow="2"
     inkscape:pageopacity="0.0"
     inkscape:pagecheckerboard="0"
     inkscape:deskcolor="#d1d1d1"
     showgrid="false" /><path
     id="path113"
     d="M 12,2.5e-7 C 5.3730332,2.5e-7 2.5e-7,5.3730332 2.5e-7,12 2.5e-7,18.626968 5.3730332,24 12,24 18.626965,24 24,18.626968 24,12 24,5.3730332 18.626965,2.5e-7 12,2.5e-7 Z m 0,1.99999995 c 5.513973,0 10,4.4860281 10,9.9999998 0,5.513973 -4.486027,10 -10,10 C 6.4860282,22 2.0000002,17.513973 2.0000002,12 2.0000002,6.4860283 6.4860282,2.0000002 12,2.0000002 Z" /><g
     style="overflow:hidden;fill:currentColor"
     id="g181"
     transform="matrix(0.0160298,0,0,0.01560689,3.7927435,4.0077121)"><path
       d="M 915.2,448 911,430.2 H 524 V 594 h 231.2 c -24,114 -135.4,174 -226.4,174 -66.2,0 -136,-27.8 -182.2,-72.6 -47.4,-46 -77.6,-113.8 -77.6,-183.6 0,-69 31,-138 76.2,-183.4 45,-45.2 113.2,-70.8 181,-70.8 77.6,0 133.2,41.2 154,60 L 796.6,201.8 c -34.2,-30 -128,-105.6 -274.2,-105.6 -112.8,0 -221,43.2 -300,122 C 144.4,295.8 104,408 104,512 c 0,104 38.2,210.8 113.8,289 80.8,83.4 195.2,127 313,127 107.2,0 208.8,-42 281.2,-118.2 71.2,-75 108,-178.8 108,-287.6 0,-45.8 -4.6,-73 -4.8,-74.2 z"
       id="path172" /></g></svg>
