<?xml version="1.0" encoding="UTF-8" standalone="no"?>
<svg
   width="24"
   height="24"
   fill="#FFFFFF"
   fill-rule="evenodd"
   clip-rule="evenodd"
   image-rendering="optimizeQuality"
   shape-rendering="geometricPrecision"
   text-rendering="geometricPrecision"
   viewBox="0 0 24 24"
   id="tiktok"
   version="1.1"
   sodipodi:docname="tiktok.svg"
   xml:space="preserve"
   xmlns:inkscape="http://www.inkscape.org/namespaces/inkscape"
   xmlns:sodipodi="http://sodipodi.sourceforge.net/DTD/sodipodi-0.dtd"
   xmlns="http://www.w3.org/2000/svg"
   xmlns:svg="http://www.w3.org/2000/svg"><defs
     id="defs7" /><sodipodi:namedview
     id="namedview5"
     pagecolor="#ffffff"
     bordercolor="#000000"
     borderopacity="0.25"
     inkscape:showpageshadow="2"
     inkscape:pageopacity="0.0"
     inkscape:pagecheckerboard="0"
     inkscape:deskcolor="#d1d1d1"
     showgrid="false" /><path
     d="m 14.475916,5.5411962 c 7.57e-4,0.197375 0.05838,3.049834 3.051853,3.22775 0,0.822604 9.61e-4,1.4190278 9.61e-4,2.2039748 -0.22669,0.01317 -1.970715,-0.113472 -3.05615,-1.0816438 l -0.0033,4.2906928 c 0.04119,2.978059 -2.1504,4.79032 -5.0149868,4.164328 -4.939679,-1.477657 -3.298258,-8.8040298 1.6616378,-8.019835 0,2.365212 0.0012,-9.48e-4 0.0012,2.365212 -2.0490588,-0.301493 -2.7344378,1.403106 -2.1898248,2.623494 0.495333,1.111212 2.5355468,1.352053 3.2472078,-0.215572 0.08062,-0.306802 0.120801,-0.656569 0.120801,-1.049296 V 5.5303282 Z"
     id="path2"
     style="stroke-width:0.0252721" /><path
     id="path113"
     d="M 12,2.5e-7 C 5.3730332,2.5e-7 2.5e-7,5.3730332 2.5e-7,12 2.5e-7,18.626968 5.3730332,24 12,24 18.626965,24 24,18.626968 24,12 24,5.3730332 18.626965,2.5e-7 12,2.5e-7 Z m 0,1.99999995 c 5.513973,0 10,4.4860281 10,9.9999998 0,5.513973 -4.486027,10 -10,10 C 6.4860282,22 2.0000002,17.513973 2.0000002,12 2.0000002,6.4860283 6.4860282,2.0000002 12,2.0000002 Z" /></svg>
